<svg height="734" width="720" xmlns="http://www.w3.org/2000/svg">
<rect height="734" fill="#555" width="720"></rect>
<text fill="#7f7" font-family="Courier New" font-size="12" xml:space="preserve">
<tspan x="10" y="26">4 megabytes installed</tspan>
<tspan x="10" y="42"></tspan>
<tspan x="10" y="58">node_modules</tspan>
<tspan x="10" y="74">└─┬ buffet@1.0.10 </tspan>
<tspan x="10" y="90">  ├─┬ accesslog@0.0.2 </tspan>
<tspan x="10" y="106">  │ ├── addr@1.0.1 </tspan>
<tspan x="10" y="122">  │ └── dateable@0.1.3 </tspan>
<tspan x="10" y="138">  ├─┬ commander@2.9.0 </tspan>
<tspan x="10" y="154">  │ └── graceful-readlink@1.0.1 </tspan>
<tspan x="10" y="170">  ├─┬ dish@1.0.7 </tspan>
<tspan x="10" y="186">  │ ├── from@0.1.7 </tspan>
<tspan x="10" y="202">  │ ├─┬ lru-cache@4.0.2 </tspan>
<tspan x="10" y="218">  │ │ ├── pseudomap@1.0.2 </tspan>
<tspan x="10" y="234">  │ │ └── yallist@2.1.2 </tspan>
<tspan x="10" y="250">  │ ├── mime@1.3.4 </tspan>
<tspan x="10" y="266">  │ └─┬ minimatch@3.0.3 </tspan>
<tspan x="10" y="282">  │   └─┬ brace-expansion@1.1.7 </tspan>
<tspan x="10" y="298">  │     ├── balanced-match@0.4.2 </tspan>
<tspan x="10" y="314">  │     └── concat-map@0.0.1 </tspan>
<tspan x="10" y="330">  ├─┬ mayonnaise@0.3.3 </tspan>
<tspan x="10" y="346">  │ └─┬ dollop@0.4.5 </tspan>
<tspan x="10" y="362">  │   ├─┬ glob@7.1.1 </tspan>
<tspan x="10" y="378">  │   │ ├── fs.realpath@1.0.0 </tspan>
<tspan x="10" y="394">  │   │ ├─┬ inflight@1.0.6 </tspan>
<tspan x="10" y="410">  │   │ │ └── wrappy@1.0.2 </tspan>
<tspan x="10" y="426">  │   │ ├── inherits@2.0.3 </tspan>
<tspan x="10" y="442">  │   │ ├── once@1.4.0 </tspan>
<tspan x="10" y="458">  │   │ └── path-is-absolute@1.0.1 </tspan>
<tspan x="10" y="474">  │   ├─┬ mkdirp@0.5.1 </tspan>
<tspan x="10" y="490">  │   │ └── minimist@0.0.8 </tspan>
<tspan x="10" y="506">  │   ├── rimraf@2.6.1 </tspan>
<tspan x="10" y="522">  │   └─┬ sinon@1.17.7 </tspan>
<tspan x="10" y="538">  │     ├── formatio@1.1.1 </tspan>
<tspan x="10" y="554">  │     ├── lolex@1.3.2 </tspan>
<tspan x="10" y="570">  │     ├── samsam@1.1.2 </tspan>
<tspan x="10" y="586">  │     └─┬ util@0.10.3 </tspan>
<tspan x="10" y="602">  │       └── inherits@2.0.1 </tspan>
<tspan x="10" y="618">  └─┬ middler@0.8.2 </tspan>
<tspan x="10" y="634">    └─┬ bladerunner@0.1.3 </tspan>
<tspan x="10" y="650">      ├─┬ debug@2.6.4 </tspan>
<tspan x="10" y="666">      │ └── ms@0.7.3 </tspan>
<tspan x="10" y="682">      ├── methods@1.1.2 </tspan>
<tspan x="10" y="698">      └─┬ path-to-regexp@1.7.0 </tspan>
<tspan x="10" y="714">        └── isarray@0.0.1</tspan>
</text>
</svg>
